<?xml version="1.0" standalone="no"?>
<!DOCTYPE svg PUBLIC "-//W3C//DTD SVG 20010904//EN"
 "http://www.w3.org/TR/2001/REC-SVG-20010904/DTD/svg10.dtd">
<svg version="1.0" xmlns="http://www.w3.org/2000/svg"
 width="751.000000pt" height="751.000000pt" viewBox="0 0 751.000000 751.000000"
 preserveAspectRatio="xMidYMid meet">
<metadata>
Created by potrace 1.11, written by Peter Selinger 2001-2013
</metadata>
<g transform="translate(0.000000,751.000000) scale(0.100000,-0.100000)"
fill="#000000" stroke="none">
<path d="M0 3757 l0 -3752 3755 0 3755 0 0 3752 0 3753 -3755 0 -3755 0 0
-3753z m3457 2291 c5 -7 8 -75 7 -150 l-2 -138 332 0 333 0 -1 141 c-1 77 1
144 4 147 9 12 30 12 30 1 0 -5 5 -7 10 -4 6 4 45 -1 86 -10 41 -9 82 -14 90
-11 8 3 12 2 9 -4 -3 -5 11 -12 32 -16 21 -4 44 -12 52 -18 11 -8 13 -8 8 1
-5 8 1 8 19 -2 15 -8 31 -12 36 -9 4 3 8 0 8 -7 0 -7 3 -10 6 -7 6 6 91 -19
109 -32 12 -9 67 -24 78 -22 4 1 7 -3 7 -9 0 -6 6 -9 14 -6 8 3 16 3 18 -1 4
-8 79 -46 93 -47 6 0 15 -6 20 -13 6 -7 20 -14 32 -15 12 0 20 -4 18 -7 -2 -3
11 -12 28 -19 18 -8 39 -19 47 -26 8 -7 35 -23 60 -36 25 -13 47 -26 50 -29 3
-3 24 -18 48 -34 23 -16 42 -33 42 -37 0 -5 6 -9 13 -9 7 0 23 -9 35 -20 12
-11 25 -20 30 -20 5 0 18 -10 29 -22 24 -27 73 -68 73 -63 0 2 16 -12 35 -32
19 -20 35 -32 35 -28 0 5 11 -5 23 -23 13 -17 55 -65 93 -106 94 -100 142
-156 135 -156 -3 0 -1 -4 4 -8 19 -13 55 -69 48 -76 -3 -3 -2 -6 3 -6 5 0 18
-14 28 -30 9 -17 22 -27 28 -24 6 4 8 2 4 -4 -3 -6 5 -27 19 -47 13 -21 23
-41 20 -45 -3 -4 2 -10 10 -14 8 -3 15 -12 15 -21 0 -8 5 -15 10 -15 6 0 9 -3
8 -7 -5 -18 14 -53 25 -47 7 4 9 4 5 -1 -4 -4 4 -29 18 -56 13 -27 21 -49 17
-49 -3 0 3 -10 15 -23 12 -13 19 -26 16 -30 -4 -4 -2 -13 4 -20 7 -8 9 -17 5
-20 -3 -4 1 -9 10 -13 9 -3 13 -12 10 -21 -4 -9 -2 -14 3 -11 5 3 10 -7 10
-24 1 -17 7 -34 15 -39 8 -5 11 -9 7 -9 -4 0 1 -24 11 -52 10 -29 17 -61 15
-70 -1 -10 2 -18 6 -18 5 0 9 -8 9 -17 0 -16 6 -48 11 -63 1 -3 3 -9 5 -15 1
-5 3 -12 4 -15 5 -10 11 -56 11 -78 0 -13 4 -21 9 -18 5 4 7 -2 4 -12 -2 -10
1 -47 8 -82 14 -77 20 -510 7 -527 -5 -6 -10 -38 -11 -72 -1 -33 -5 -61 -9
-61 -4 0 -6 -13 -4 -30 2 -16 0 -31 -5 -32 -4 -2 -10 -19 -12 -38 -3 -19 -6
-35 -7 -35 -2 0 -6 -16 -13 -55 -3 -14 -6 -27 -7 -30 -2 -3 -2 -9 -1 -14 1 -4
-4 -14 -10 -22 -6 -8 -9 -14 -6 -14 3 0 -6 -28 -19 -63 -14 -34 -25 -72 -26
-84 -2 -13 -6 -23 -10 -23 -4 0 -8 -7 -8 -15 0 -8 -4 -23 -10 -33 -22 -40 -83
-178 -82 -184 1 -5 -3 -8 -9 -8 -5 0 -7 -4 -4 -10 3 -5 1 -10 -5 -10 -6 0 -8
-4 -5 -10 3 -5 2 -10 -3 -10 -8 0 -34 -45 -36 -61 -1 -3 -10 -17 -20 -31 -10
-14 -18 -29 -17 -32 1 -4 -8 -16 -21 -26 -13 -11 -19 -19 -15 -20 5 0 2 -6 -5
-14 -7 -7 -20 -24 -28 -36 -8 -13 -29 -42 -47 -66 -17 -23 -28 -45 -25 -49 4
-4 0 -5 -8 -3 -8 2 -14 -3 -13 -9 2 -7 -2 -12 -9 -10 -7 1 -12 -4 -13 -11 0
-8 -8 -19 -17 -26 -10 -7 -18 -18 -18 -24 0 -5 -7 -13 -16 -16 -8 -3 -12 -11
-9 -16 4 -6 3 -9 -2 -8 -11 3 -69 -52 -66 -63 2 -5 -3 -8 -10 -6 -6 1 -11 -4
-10 -10 2 -7 -1 -12 -6 -10 -4 1 -37 -25 -72 -58 -35 -33 -87 -78 -114 -100
-28 -22 -52 -42 -55 -45 -3 -3 -18 -13 -35 -22 -16 -10 -29 -22 -27 -28 1 -7
-1 -9 -6 -6 -5 3 -28 -9 -53 -25 -24 -17 -54 -34 -67 -40 -13 -5 -20 -13 -17
-19 3 -6 -1 -7 -9 -4 -9 3 -16 1 -16 -6 0 -6 -4 -8 -10 -5 -5 3 -10 2 -10 -3
0 -9 -50 -37 -62 -34 -5 1 -8 -3 -8 -8 0 -5 -3 -9 -7 -9 -15 3 -73 -23 -73
-33 0 -5 -4 -7 -8 -4 -5 3 -22 -4 -39 -14 -17 -10 -40 -20 -50 -22 -10 -2 -21
-7 -24 -11 -3 -4 -16 -9 -27 -10 -12 -1 -22 -4 -22 -7 0 -3 -27 -14 -60 -24
-33 -11 -60 -22 -60 -25 0 -3 -12 -7 -28 -9 -56 -5 -67 -7 -73 -16 -4 -5 -18
-8 -33 -8 -14 0 -26 -4 -26 -8 0 -3 -6 -7 -12 -7 -24 -2 -93 -15 -101 -20 -4
-2 -24 -6 -45 -7 -20 -2 -47 -6 -59 -10 -27 -9 -25 -19 -27 139 -2 114 5 152
25 139 5 -3 9 -2 9 3 0 4 14 9 30 10 46 3 60 6 60 12 0 3 17 7 37 8 21 1 39 7
41 13 2 5 8 8 13 5 5 -3 28 0 51 6 24 7 46 12 51 11 4 -1 7 2 7 6 0 4 10 8 21
9 12 1 29 9 38 17 10 9 20 13 24 10 8 -9 197 76 197 89 0 6 3 8 6 4 5 -5 143
59 154 72 3 3 25 20 50 36 25 17 47 33 48 38 2 4 8 5 13 1 5 -3 9 0 9 5 0 6 7
11 15 11 8 0 15 7 15 16 0 8 4 12 10 9 10 -6 43 20 127 101 29 28 53 49 53 47
0 -2 6 2 14 9 8 7 11 17 8 22 -3 5 0 6 5 3 10 -7 63 49 63 66 0 4 3 6 8 4 4
-3 13 1 20 9 7 8 11 14 8 14 -3 0 18 25 47 55 29 31 51 59 51 63 -1 4 7 13 18
20 10 7 16 18 13 23 -4 5 -2 9 2 9 5 0 17 16 27 35 11 19 23 35 28 35 4 0 8 6
8 14 0 8 4 16 8 18 21 9 104 172 94 184 -4 4 -2 4 5 0 8 -4 15 3 19 21 4 15
14 37 23 47 9 11 10 16 4 12 -9 -5 -11 -2 -7 8 3 9 11 13 17 9 5 -3 7 -2 4 4
-4 6 -354 10 -999 12 -546 1 -1409 3 -1916 4 -508 1 -926 -1 -929 -5 -2 -5 1
-8 7 -8 6 0 9 -4 6 -9 -4 -5 -3 -11 1 -13 11 -4 79 -140 76 -150 -2 -4 2 -8 7
-8 6 0 10 -6 10 -14 0 -8 6 -21 13 -28 7 -7 13 -16 13 -19 -1 -3 19 -35 44
-70 25 -35 45 -66 44 -69 0 -3 4 -10 10 -16 6 -6 22 -26 36 -45 14 -18 39 -48
56 -65 17 -17 34 -39 37 -48 4 -10 12 -14 17 -11 6 4 9 2 8 -3 -4 -12 68 -93
76 -85 3 3 6 -1 6 -10 0 -8 9 -18 19 -22 11 -3 34 -23 52 -43 37 -42 78 -75
64 -51 -5 8 8 -3 27 -25 20 -21 41 -35 47 -32 5 4 13 1 17 -5 5 -8 2 -10 -7
-5 -8 4 -3 -2 11 -13 14 -11 30 -21 36 -21 6 0 21 -11 34 -25 13 -14 29 -25
37 -25 7 0 13 -5 13 -11 0 -5 4 -8 9 -5 5 4 11 2 13 -3 3 -8 120 -71 135 -72
5 0 12 -7 16 -15 5 -8 12 -12 18 -9 5 4 9 1 9 -4 0 -6 9 -11 19 -11 11 0 26
-6 33 -13 7 -8 19 -12 27 -9 7 2 16 0 20 -5 7 -11 97 -45 123 -47 10 -1 22 -5
26 -11 4 -5 14 -11 22 -12 8 -1 58 -13 110 -27 52 -14 96 -25 98 -25 1 -1 12
-3 25 -6 12 -3 33 -7 46 -8 23 -4 23 -4 25 -149 1 -138 0 -146 -17 -136 -10 5
-40 10 -67 11 -26 1 -46 6 -43 10 3 5 -3 8 -13 6 -11 -1 -27 1 -36 6 -10 4
-25 5 -33 2 -8 -4 -17 -2 -20 4 -4 5 -11 7 -16 4 -5 -4 -9 -1 -9 5 0 6 -4 9
-9 5 -5 -3 -12 -1 -16 4 -3 6 -12 8 -20 4 -8 -3 -15 0 -15 7 0 6 -4 9 -9 6
-10 -7 -171 46 -215 71 -16 9 -26 11 -22 5 3 -5 -28 7 -70 29 -41 22 -80 37
-85 34 -5 -4 -9 -2 -9 3 0 5 -15 15 -32 23 -18 7 -52 25 -75 41 -23 15 -46 28
-52 28 -6 0 -11 5 -11 10 0 6 -5 10 -10 10 -6 0 -28 11 -49 24 -21 14 -42 23
-45 20 -3 -2 -4 -1 -1 3 5 6 -37 40 -44 34 -2 -1 -7 1 -10 6 -3 5 -32 29 -65
53 -32 24 -71 56 -86 70 -15 14 -42 37 -60 51 -36 27 -42 33 -71 72 -11 15
-25 24 -31 21 -6 -4 -8 -3 -5 3 6 10 -73 89 -85 85 -4 -1 -5 5 -2 13 4 8 1 15
-5 15 -6 0 -17 11 -23 25 -6 13 -19 27 -29 30 -11 4 -16 12 -12 21 3 7 1 14
-5 14 -6 0 -27 24 -48 53 -21 28 -43 55 -49 59 -6 5 -6 8 0 8 6 0 1 7 -9 15
-11 8 -16 15 -10 15 5 0 2 6 -6 13 -8 7 -25 30 -37 52 -11 22 -34 63 -49 90
-49 89 -94 185 -94 200 0 8 -4 15 -10 15 -5 0 -10 9 -10 19 0 11 -4 23 -10 26
-5 3 -10 15 -10 26 0 13 -4 18 -12 13 -6 -4 -8 -3 -5 3 4 6 -4 42 -17 81 -13
39 -22 73 -18 76 3 3 0 6 -7 6 -7 0 -11 6 -8 14 3 8 3 17 -1 21 -4 4 -8 15 -8
26 -1 10 -2 20 -4 22 -3 4 -18 71 -25 112 -3 17 -10 55 -15 85 -30 163 -34
599 -6 670 5 14 16 97 19 147 0 12 5 19 11 16 5 -4 7 3 4 15 -4 12 -3 22 1 22
7 0 11 15 12 52 0 10 5 20 10 23 5 4 7 10 4 15 -3 4 13 58 34 119 22 61 37
111 34 111 -2 0 3 7 11 16 9 8 14 20 11 25 -4 5 -1 9 5 9 6 0 8 5 5 10 -3 6
-2 10 2 10 5 0 10 10 10 22 1 13 7 24 13 26 5 2 10 10 10 18 0 8 7 26 16 39 9
13 12 30 8 36 -5 8 -3 9 6 4 10 -6 12 -4 7 8 -4 10 -2 16 6 14 6 -1 13 8 15
21 2 12 8 20 13 17 5 -4 9 2 9 13 0 10 18 44 40 75 22 32 37 57 34 57 -3 0 1
6 8 14 26 28 48 56 48 64 0 4 11 20 25 35 14 15 22 27 18 27 -4 0 6 12 22 26
16 14 30 29 30 32 1 20 277 298 305 307 11 3 20 12 20 18 0 11 61 57 75 57 5
0 15 8 67 55 13 11 26 19 29 18 4 -1 15 7 24 17 10 11 22 20 28 20 5 0 42 20
81 45 40 25 78 45 85 45 7 0 10 4 7 8 -3 5 1 9 8 9 7 0 49 18 94 41 45 23 82
39 82 36 0 -3 6 -2 13 3 6 4 18 8 26 10 8 1 18 8 22 15 5 7 9 10 9 6 0 -4 24
2 53 13 28 12 59 22 67 24 8 2 26 7 40 13 14 5 31 7 38 5 6 -3 12 0 12 6 0 6
3 10 8 9 17 -5 82 14 77 22 -3 6 1 7 9 4 8 -3 49 2 90 11 41 9 80 14 86 10 5
-3 10 -1 10 4 0 15 16 14 27 -1z"/>
<path d="M2612 4218 c-7 -7 -42 -16 -69 -17 -6 -1 -18 -7 -25 -14 -13 -14 -21
-17 -39 -17 -5 0 -8 -4 -5 -9 3 -5 -2 -8 -12 -7 -10 0 -16 -5 -14 -14 2 -8 0
-12 -4 -8 -10 11 -65 -32 -58 -44 4 -6 3 -8 -3 -5 -12 8 -56 -36 -46 -46 3 -4
2 -7 -4 -7 -12 0 -70 -114 -79 -155 -8 -43 -12 -185 -5 -185 3 0 7 -12 7 -28
1 -15 11 -48 23 -75 11 -26 22 -51 23 -55 7 -21 118 -141 118 -127 0 5 6 1 13
-8 15 -21 127 -78 138 -71 5 3 9 0 9 -6 0 -6 8 -10 18 -9 9 1 19 0 22 -1 14
-7 190 -5 190 2 0 4 3 7 8 7 4 -1 9 0 12 1 3 1 18 4 34 6 16 3 36 13 44 22 7
9 10 10 6 3 -4 -9 6 -6 24 8 18 12 32 20 32 17 0 -8 73 58 116 106 26 28 57
88 47 88 -5 0 -3 4 4 8 6 4 13 16 15 27 1 11 6 22 9 25 4 3 8 21 10 40 2 19 5
40 8 45 8 14 7 105 -1 105 -4 0 -6 13 -6 30 1 16 -5 37 -13 47 -8 9 -9 14 -3
10 7 -4 5 8 -4 28 -9 19 -20 31 -25 28 -6 -3 -7 -1 -3 5 7 12 -48 105 -58 95
-3 -3 -6 0 -6 8 0 8 -18 27 -40 42 -22 16 -40 33 -40 38 0 5 -9 9 -20 9 -11 0
-20 3 -20 8 0 4 -11 12 -25 19 -19 8 -23 8 -18 0 4 -7 -1 -5 -11 3 -20 16 -17
15 -102 29 -65 12 -160 11 -172 -1z"/>
<path d="M4790 4219 c-25 -5 -52 -12 -60 -15 -8 -4 -21 -6 -27 -5 -7 1 -13 -2
-13 -7 0 -4 -16 -14 -35 -21 -20 -7 -47 -24 -60 -37 -14 -14 -25 -22 -25 -19
0 4 -7 0 -15 -9 -8 -8 -15 -18 -15 -21 0 -4 -16 -22 -35 -41 -20 -19 -33 -39
-30 -44 3 -6 1 -10 -5 -10 -6 0 -9 -4 -6 -9 3 -5 -1 -12 -10 -15 -9 -3 -14
-13 -11 -20 3 -8 2 -16 -3 -18 -5 -2 -11 -14 -14 -28 -2 -14 -5 -25 -6 -25 -4
0 -12 -76 -12 -115 1 -71 7 -107 22 -126 9 -10 10 -15 3 -11 -17 11 44 -111
70 -139 12 -12 33 -36 47 -53 14 -17 31 -31 38 -31 6 0 12 -4 12 -10 0 -5 6
-10 14 -10 7 0 19 -7 26 -15 7 -9 19 -14 27 -11 8 3 11 2 8 -4 -5 -7 47 -27
90 -34 6 -1 15 -4 20 -7 17 -11 220 0 220 12 0 1 10 3 22 4 40 4 157 82 205
137 26 29 46 55 46 58 -1 3 5 16 12 30 8 14 13 28 12 33 -1 4 2 7 6 7 13 0 33
75 26 94 -3 9 -1 16 6 16 8 0 10 20 6 73 -4 39 -7 80 -7 90 0 9 -5 17 -10 17
-6 0 -7 4 -4 10 18 29 -127 240 -164 240 -6 0 -11 4 -11 9 0 5 -18 18 -40 30
-22 11 -40 18 -40 15 0 -4 -6 -2 -12 4 -37 30 -182 47 -268 31z"/>
</g>
</svg>
